<!-- icon666.com - MILLIONS vector ICONS FREE --><svg version="1.1" id="Capa_1" xmlns="http://www.w3.org/2000/svg" xmlns:xlink="http://www.w3.org/1999/xlink" x="0px" y="0px" viewBox="0 0 512.002 512.002" style="enable-background:new 0 0 512.002 512.002;" xml:space="preserve"><path style="" d="M412.881,71.395c-0.279,0-0.56,0.003-0.837,0.008c-6.473-21.545-26.492-37.285-50.116-37.285 c-5.795,0-11.455,0.941-16.799,2.749c-3.443-7.415-8.32-14.161-14.447-19.853C318.871,6.042,303.486,0,287.357,0 c-11.04,0-21.848,2.885-31.356,8.262C246.493,2.885,235.684,0,224.645,0c-16.129,0-31.515,6.042-43.324,17.015 c-6.127,5.691-11.005,12.438-14.447,19.853c-5.344-1.808-11.005-2.749-16.799-2.749c-23.626,0-43.643,15.739-50.116,37.285 c-0.278-0.005-0.559-0.008-0.837-0.008c-22.577,0-40.945,18.368-40.945,40.945v30.022c0,8.306,6.734,15.041,15.041,15.041h365.568 c8.306,0,15.041-6.734,15.041-15.041v-30.022C453.826,89.762,435.458,71.395,412.881,71.395z" fill="#EDBC3A"></path><g><path style="" d="M256.001,8.262C246.493,2.885,235.684,0,224.645,0c-16.129,0-31.515,6.042-43.324,17.015 c-6.127,5.691-11.005,12.438-14.447,19.853c-5.344-1.808-11.005-2.749-16.799-2.749c-23.626,0-43.643,15.739-50.116,37.285 c-0.278-0.005-0.559-0.008-0.837-0.008c-22.577,0-40.945,18.368-40.945,40.945v30.022c0,8.306,6.734,15.041,15.041,15.041h182.784 V8.262H256.001z" fill="#FFDD59"></path><path style="" d="M284.394,86.433c-10.821,0-20.725,3.909-28.394,10.382c-7.669-6.473-17.572-10.382-28.394-10.382 c-23.148,0-42.113,17.858-43.9,40.547h144.589C326.507,104.292,307.543,86.433,284.394,86.433z" fill="#FFDD59"></path></g><path style="" d="M256.001,96.815c-7.669-6.473-17.572-10.382-28.394-10.382c-23.148,0-42.113,17.858-43.9,40.547 h72.294V96.815z" fill="#EDBC3A"></path><path style="fill: rgb(109, 20, 163);" d="M459.693,131.966c-2.853-3.174-6.918-4.985-11.185-4.985H63.494c-4.268,0-8.333,1.813-11.185,4.985 c-2.853,3.174-4.223,7.409-3.77,11.652l37.899,354.938C87.254,506.201,93.704,512,101.393,512h309.216 c7.689,0,14.139-5.799,14.955-13.443l37.899-354.938C463.917,139.376,462.545,135.14,459.693,131.966z" fill="#ED6FB6"></path><path style="fill: rgb(149, 52, 210);" d="M256.001,126.981H63.494c-4.268,0-8.333,1.813-11.185,4.985c-2.853,3.174-4.223,7.409-3.77,11.652 l37.899,354.938C87.254,506.201,93.704,512,101.393,512h154.607V126.981z" fill="#FF95BE"></path><g><polygon style="" points="142.94,126.981 158.38,512 188.486,512 173.047,126.981 " fill="#EDF2F9"></polygon><rect x="240.961" y="126.983" style="" width="30.081" height="385.019" fill="#EDF2F9"></rect></g><polygon style="" points="338.954,126.981 323.515,512 353.621,512 369.061,126.981 " fill="#B7C7D5"></polygon></svg>