<svg width="24" height="25" viewBox="0 0 24 25" fill="none" xmlns="http://www.w3.org/2000/svg">
<path d="M12 17.6118C12.5523 17.6118 13 17.1641 13 16.6118C13 16.0595 12.5523 15.6118 12 15.6118C11.4477 15.6118 11 16.0595 11 16.6118C11 17.1641 11.4477 17.6118 12 17.6118Z" fill="#141C24"/>
<path d="M13 12.6118C13 13.1641 12.5523 13.6118 12 13.6118C11.4477 13.6118 11 13.1641 11 12.6118C11 12.0595 11.4477 11.6118 12 11.6118C12.5523 11.6118 13 12.0595 13 12.6118Z" fill="#141C24"/>
<path d="M12 9.61182C12.5523 9.61182 13 9.16409 13 8.61182C13 8.05954 12.5523 7.61182 12 7.61182C11.4477 7.61182 11 8.05954 11 8.61182C11 9.16409 11.4477 9.61182 12 9.61182Z" fill="#141C24"/>
<path fill-rule="evenodd" clip-rule="evenodd" d="M2 14.6118V18.6118C2 19.7164 2.89543 20.6118 4 20.6118H20C21.1046 20.6118 22 19.7164 22 18.6118V14.6118C20.8954 14.6118 20 13.7164 20 12.6118C20 11.5072 20.8954 10.6118 22 10.6118V6.61182C22 5.50723 21.1046 4.61182 20 4.61182H4C2.89543 4.61182 2 5.50726 2 6.61182V10.6118C3.10457 10.6118 4 11.5072 4 12.6118C4 13.7164 3.10457 14.6118 2 14.6118ZM20.5 18.6118C20.5 18.888 20.2761 19.1118 20 19.1118H4C3.72385 19.1118 3.5 18.888 3.5 18.6118V15.775C4.68246 15.2133 5.5 14.008 5.5 12.6118C5.5 11.2156 4.68248 10.0104 3.5 9.44864V6.61182C3.5 6.33566 3.72385 6.11182 4 6.11182H20C20.2761 6.11182 20.5 6.33566 20.5 6.61182V9.44864C19.3175 10.0104 18.5 11.2156 18.5 12.6118C18.5 14.008 19.3175 15.2133 20.5 15.775V18.6118Z" fill="#141C24"/>
</svg>
