<svg width="24" height="25" viewBox="0 0 24 25" fill="none" xmlns="http://www.w3.org/2000/svg">
<path fill-rule="evenodd" clip-rule="evenodd" d="M16 8.61182C16 10.821 14.2091 12.6118 12 12.6118C9.79086 12.6118 8 10.821 8 8.61182C8 6.40268 9.79086 4.61182 12 4.61182C14.2091 4.61182 16 6.40268 16 8.61182ZM14.5 8.61182C14.5 9.99253 13.3807 11.1118 12 11.1118C10.6193 11.1118 9.5 9.99253 9.5 8.61182C9.5 7.2311 10.6193 6.11182 12 6.11182C13.3807 6.11182 14.5 7.2311 14.5 8.61182Z" fill="#141C24"/>
<path fill-rule="evenodd" clip-rule="evenodd" d="M4 18.3838V20.6118H20V18.3838C20 16.7164 18.9657 15.224 17.4045 14.6385L17.2669 14.5869C13.8711 13.3135 10.1289 13.3135 6.73315 14.5869L6.59551 14.6385C5.03429 15.224 4 16.7164 4 18.3838ZM7.25984 15.9914C10.316 14.8453 13.684 14.8453 16.7402 15.9914L16.8778 16.043C17.8536 16.4089 18.5 17.3417 18.5 18.3838V19.1118H5.5V18.3838C5.5 17.3417 6.14643 16.4089 7.12219 16.043L7.25984 15.9914Z" fill="#141C24"/>
</svg>
